<?xml version="1.0" standalone="no"?>
<!DOCTYPE svg PUBLIC "-//W3C//DTD SVG 20010904//EN"
 "http://www.w3.org/TR/2001/REC-SVG-20010904/DTD/svg10.dtd">
<svg version="1.0" xmlns="http://www.w3.org/2000/svg"
 width="450.000000pt" height="450.000000pt" viewBox="0 0 450.000000 450.000000"
 preserveAspectRatio="xMidYMid meet">
<metadata>
Created by potrace 1.14, written by Peter Selinger 2001-2017
</metadata>
<g transform="translate(0.000000,450.000000) scale(0.100000,-0.100000)"
fill="#000000" stroke="none">
<path d="M400 3900 l0 -250 445 0 c245 0 445 -4 445 -8 0 -5 -214 -500 -474
-1101 -261 -600 -478 -1101 -481 -1111 -6 -20 4 -20 824 -20 l831 0 0 -560 0
-560 418 0 c685 0 889 24 1097 128 488 244 737 849 624 1521 -67 401 -304 762
-611 930 -84 46 -248 98 -379 120 -185 32 -360 41 -766 41 l-383 0 0 -560 0
-560 -451 0 c-357 0 -450 3 -446 13 3 6 222 508 486 1114 265 606 481 1104
481 1107 0 3 -373 6 -830 6 l-830 0 0 -250z m2584 -1400 c274 -58 432 -173
542 -395 80 -161 113 -368 93 -588 -16 -181 -55 -306 -136 -431 -146 -227
-337 -296 -815 -296 l-168 0 0 871 0 872 193 -6 c138 -4 220 -12 291 -27z"/>
</g>
</svg>
